<svg width="75" height="75" viewBox="0 0 75 75" fill="none" xmlns="http://www.w3.org/2000/svg">
<g opacity="0.82">
<circle cx="37.5" cy="37.5" r="36" fill="#B624A9" fill-opacity="0.75"/>
<circle cx="37.5" cy="37.5" r="36" stroke="#F960EC" stroke-width="3"/>
<circle cx="37.5" cy="37.5" r="36" stroke="black" stroke-opacity="0.8" stroke-width="3"/>
</g>
<path d="M47.1352 49.6119C47.9162 50.3929 49.1826 50.3929 49.9636 49.6119C50.7447 48.8308 50.7447 47.5645 49.9636 46.7834L47.1352 49.6119ZM26.8648 23.6846C26.0838 22.9036 24.8174 22.9036 24.0364 23.6846C23.2553 24.4657 23.2553 25.732 24.0364 26.513L26.8648 23.6846ZM22.0069 38.1008C22.0119 39.2054 22.9113 40.0968 24.0158 40.0919C25.1204 40.087 26.0118 39.1875 26.0069 38.083L22.0069 38.1008ZM23.9843 33.0242L25.9843 33.0153L25.9843 33.0153L23.9843 33.0242ZM33.376 23.6325L33.3849 21.6326L33.376 23.6325ZM38.4348 25.6551C39.5393 25.6601 40.4387 24.7686 40.4437 23.6641C40.4486 22.5595 39.5572 21.6601 38.4526 21.6552L38.4348 25.6551ZM25.027 25.5799L23.4453 24.3558L23.4453 24.3558L25.027 25.5799ZM25.9317 24.6752L24.7076 23.0935L24.7076 23.0935L25.9317 24.6752ZM49.9636 46.7834L26.8648 23.6846L24.0364 26.513L47.1352 49.6119L49.9636 46.7834ZM26.0069 38.083L25.9843 33.0153L21.9843 33.0331L22.0069 38.1008L26.0069 38.083ZM33.367 25.6325L38.4348 25.6551L38.4526 21.6552L33.3849 21.6326L33.367 25.6325ZM25.9843 33.0153C25.9751 30.9476 25.9719 29.5658 26.0859 28.522C26.1955 27.5184 26.3922 27.0836 26.6086 26.8039L23.4453 24.3558C22.592 25.4584 22.2584 26.725 22.1095 28.0877C21.9651 29.4102 21.9755 31.0595 21.9843 33.0331L25.9843 33.0153ZM33.3849 21.6326C31.4112 21.6238 29.762 21.6134 28.4395 21.7578C27.0768 21.9066 25.8101 22.2403 24.7076 23.0935L27.1557 26.2569C27.4354 26.0404 27.8702 25.8437 28.8737 25.7341C29.9175 25.6202 31.2993 25.6233 33.367 25.6325L33.3849 21.6326ZM26.6086 26.8039C26.7671 26.5991 26.9509 26.4154 27.1557 26.2569L24.7076 23.0935C24.2351 23.4592 23.811 23.8833 23.4453 24.3558L26.6086 26.8039Z" fill="white" fill-opacity="0.74"/>
</svg>
