<svg width="24" height="25" viewBox="0 0 24 25" fill="none" xmlns="http://www.w3.org/2000/svg">
<path d="M7.23677 4.25006C9.44278 2.97642 10.5458 2.3396 11.752 2.27971C11.9172 2.27151 12.0827 2.27151 12.2478 2.27971C13.454 2.3396 14.557 2.97642 16.7631 4.25006C18.9691 5.5237 20.0721 6.16052 20.727 7.17516C20.8167 7.31412 20.8995 7.45744 20.975 7.6046C21.5262 8.67914 21.5262 9.95278 21.5262 12.5001C21.5262 15.0473 21.5262 16.321 20.975 17.3955C20.8995 17.5427 20.8167 17.686 20.727 17.825C20.0721 18.8396 18.9691 19.4764 16.7631 20.7501C14.557 22.0237 13.454 22.6605 12.2478 22.7204C12.0827 22.7286 11.9172 22.7286 11.752 22.7204C10.5458 22.6605 9.44278 22.0237 7.23677 20.7501C5.03076 19.4764 3.92776 18.8396 3.2728 17.825C3.1831 17.686 3.10036 17.5427 3.02486 17.3955C2.47363 16.321 2.47363 15.0473 2.47363 12.5001C2.47363 9.95278 2.47363 8.67914 3.02486 7.6046C3.10036 7.45744 3.1831 7.31412 3.2728 7.17516C3.92776 6.16052 5.03076 5.5237 7.23677 4.25006Z" stroke="white" stroke-opacity="0.75" stroke-width="1.5"/>
<path d="M13.421 9.77921C14.8718 10.6721 15.5972 11.1185 15.8407 11.7014C16.053 12.2098 16.053 12.7903 15.8407 13.2987C15.5972 13.8816 14.8718 14.328 13.421 15.2209C11.9701 16.1138 11.2447 16.5602 10.6495 16.4935C10.1303 16.4354 9.65859 16.1451 9.35172 15.6949C8.99991 15.1787 8.99991 14.2858 8.99991 12.5001C8.99991 10.7143 8.99991 9.82141 9.35172 9.30524C9.65859 8.85503 10.1303 8.56475 10.6495 8.50658C11.2447 8.43989 11.9701 8.88633 13.421 9.77921Z" stroke="white" stroke-opacity="0.75" stroke-width="1.5"/>
</svg>
