<svg width="23" height="24" viewBox="0 0 23 24" fill="none" xmlns="http://www.w3.org/2000/svg">
<path d="M18.5304 17.9698C18.2375 17.6769 17.7626 17.6769 17.4697 17.9698C17.1768 18.2626 17.1768 18.7375 17.4697 19.0304L18.5304 17.9698ZM21.4696 23.0304C21.7625 23.3233 22.2374 23.3233 22.5303 23.0304C22.8232 22.7375 22.8232 22.2626 22.5303 21.9697L21.4696 23.0304ZM8.33512 5.30232C8.74423 5.23752 9.02336 4.85334 8.95856 4.44423C8.89376 4.03511 8.50958 3.75599 8.10047 3.82079L8.33512 5.30232ZM3.32076 8.6005C3.25596 9.00961 3.53508 9.39379 3.9442 9.45859C4.35331 9.52339 4.73749 9.24426 4.80229 8.83515L3.32076 8.6005ZM17.4697 19.0304L21.4696 23.0304L22.5303 21.9697L18.5304 17.9698L17.4697 19.0304ZM10 18.75C5.44365 18.75 1.75 15.0563 1.75 10.5H0.25C0.25 15.8848 4.61522 20.25 10 20.25V18.75ZM18.25 10.5C18.25 15.0563 14.5563 18.75 10 18.75V20.25C15.3848 20.25 19.75 15.8848 19.75 10.5H18.25ZM10 2.25C14.5563 2.25 18.25 5.94365 18.25 10.5H19.75C19.75 5.11522 15.3848 0.75 10 0.75V2.25ZM10 0.75C4.61522 0.75 0.25 5.11522 0.25 10.5H1.75C1.75 5.94365 5.44365 2.25 10 2.25V0.75ZM8.10047 3.82079C5.64008 4.21047 3.71044 6.14012 3.32076 8.6005L4.80229 8.83515C5.09032 7.01661 6.51658 5.59035 8.33512 5.30232L8.10047 3.82079Z" fill="#FAFAFA"/>
</svg>
